<svg width="130" height="130" viewBox="0 0 130 130" fill="none" xmlns="http://www.w3.org/2000/svg">
<circle cx="62.5" cy="62.5" r="62" stroke="black"/>
<path d="M49.9574 62.288C50.9334 62.56 51.7014 63.056 52.2614 63.776C52.8214 64.48 53.1014 65.376 53.1014 66.464C53.1014 67.92 52.5494 69.04 51.4454 69.824C50.3574 70.608 48.7654 71 46.6694 71H38.6534V54.2H46.1894C48.1094 54.2 49.5894 54.584 50.6294 55.352C51.6854 56.12 52.2134 57.184 52.2134 58.544C52.2134 59.424 52.0054 60.184 51.5894 60.824C51.1894 61.464 50.6454 61.952 49.9574 62.288ZM41.0534 56.144V61.52H45.9734C47.2054 61.52 48.1494 61.296 48.8054 60.848C49.4774 60.384 49.8134 59.712 49.8134 58.832C49.8134 57.952 49.4774 57.288 48.8054 56.84C48.1494 56.376 47.2054 56.144 45.9734 56.144H41.0534ZM46.5734 69.056C47.9334 69.056 48.9574 68.832 49.6454 68.384C50.3334 67.936 50.6774 67.232 50.6774 66.272C50.6774 64.4 49.3094 63.464 46.5734 63.464H41.0534V69.056H46.5734ZM63.4175 71.192C61.1775 71.192 59.4335 70.552 58.1855 69.272C56.9375 67.992 56.3135 66.152 56.3135 63.752V54.2H58.7135V63.656C58.7135 67.256 60.2895 69.056 63.4415 69.056C64.9775 69.056 66.1535 68.616 66.9695 67.736C67.7855 66.84 68.1935 65.48 68.1935 63.656V54.2H70.5215V63.752C70.5215 66.168 69.8975 68.016 68.6495 69.296C67.4015 70.56 65.6575 71.192 63.4175 71.192ZM81.2795 65.192V71H78.9035V65.144L72.2315 54.2H74.7995L80.1755 63.056L85.5755 54.2H87.9515L81.2795 65.192Z" fill="black"/>
</svg>
