<svg width="176" height="51" viewBox="0 0 176 51" fill="none" xmlns="http://www.w3.org/2000/svg">
<path d="M39.2891 24.209H30.9355V33H28.3105V13.0938H40.6426V15.2539H30.9355V22.0625H39.2891V24.209ZM55.0391 23.7988H46.4121V30.8535H56.4336V33H43.7871V13.0938H56.2969V15.2539H46.4121V21.6523H55.0391V23.7988ZM67.002 24.9473H62.3262V33H59.6875V13.0938H66.2773C68.5195 13.0938 70.2422 13.6042 71.4453 14.625C72.6576 15.6458 73.2637 17.1315 73.2637 19.082C73.2637 20.3216 72.9264 21.4017 72.252 22.3223C71.5866 23.2428 70.6569 23.931 69.4629 24.3867L74.1387 32.8359V33H71.3223L67.002 24.9473ZM62.3262 22.8008H66.3594C67.6628 22.8008 68.6973 22.4635 69.4629 21.7891C70.2376 21.1146 70.625 20.2122 70.625 19.082C70.625 17.8516 70.2559 16.9082 69.5176 16.252C68.7884 15.5957 67.7311 15.263 66.3457 15.2539H62.3262V22.8008ZM92.2539 33H89.6152L79.5938 17.6602V33H76.9551V13.0938H79.5938L89.6426 28.502V13.0938H92.2539V33Z" fill="black"/>
<path d="M98.458 33H95.751V17.3594H98.458V33ZM109.974 28.9717C109.974 28.2842 109.73 27.7542 109.243 27.3818C108.763 27.0094 107.893 26.6335 106.633 26.2539C105.372 25.8743 104.37 25.4518 103.625 24.9863C102.2 24.0911 101.487 22.9238 101.487 21.4844C101.487 20.224 101.999 19.1855 103.023 18.3691C104.055 17.5527 105.39 17.1445 107.03 17.1445C108.119 17.1445 109.089 17.3451 109.941 17.7461C110.794 18.1471 111.463 18.7201 111.95 19.4648C112.437 20.2025 112.681 21.0225 112.681 21.9248H109.974C109.974 21.1084 109.716 20.471 109.2 20.0127C108.692 19.5472 107.961 19.3145 107.009 19.3145C106.121 19.3145 105.43 19.5042 104.936 19.8838C104.449 20.2633 104.205 20.7933 104.205 21.4736C104.205 22.0465 104.47 22.5264 105 22.9131C105.53 23.2926 106.404 23.665 107.621 24.0303C108.839 24.3883 109.816 24.8001 110.554 25.2656C111.291 25.724 111.832 26.2539 112.176 26.8555C112.52 27.4499 112.691 28.1481 112.691 28.9502C112.691 30.2536 112.19 31.292 111.188 32.0654C110.192 32.8317 108.839 33.2148 107.127 33.2148C105.995 33.2148 104.953 33.0072 104.001 32.5918C103.056 32.1693 102.318 31.5892 101.788 30.8516C101.265 30.1139 101.004 29.2546 101.004 28.2734H103.722C103.722 29.1615 104.015 29.849 104.603 30.3359C105.19 30.8229 106.031 31.0664 107.127 31.0664C108.072 31.0664 108.781 30.8766 109.254 30.4971C109.734 30.1104 109.974 29.6019 109.974 28.9717ZM127.494 33H124.787V26.0498H117.794V33H115.076V17.3594H117.794V23.8691H124.787V17.3594H127.494V33ZM139.858 26.0176H133.435V30.8301H140.943V33H130.717V17.3594H140.868V19.5508H133.435V23.8691H139.858V26.0176ZM148.903 26.9736H145.874V33H143.156V17.3594H148.656C150.461 17.3594 151.854 17.764 152.835 18.5732C153.816 19.3825 154.307 20.5534 154.307 22.0859C154.307 23.1315 154.052 24.0088 153.544 24.7178C153.043 25.4196 152.341 25.9603 151.438 26.3398L154.951 32.8604V33H152.04L148.903 26.9736ZM145.874 24.793H148.667C149.584 24.793 150.3 24.5638 150.815 24.1055C151.331 23.64 151.589 23.0062 151.589 22.2041C151.589 21.3662 151.349 20.7181 150.869 20.2598C150.396 19.8014 149.688 19.5651 148.742 19.5508H145.874V24.793Z" fill="black"/>
<line x1="96" y1="14" x2="154" y2="14" stroke="black" stroke-width="2"/>
</svg>
